<svg width="36" height="35" viewBox="0 0 36 35" fill="none" xmlns="http://www.w3.org/2000/svg">
<path d="M17.9182 0.406361C20.8972 0.406361 24.028 10.6762 24.028 10.6762C24.028 10.6762 34.7264 10.4921 35.6466 13.3365C36.5669 16.181 27.8039 22.3429 27.8039 22.3429C27.8039 22.3429 31.2825 32.4984 28.8728 34.2572C26.463 36.0159 17.9151 29.5556 17.9151 29.5556C17.9151 29.5556 9.37029 36.0159 6.95739 34.2572C4.54764 32.4984 8.02628 22.3429 8.02628 22.3429C8.02628 22.3429 -0.73039 16.181 0.189867 13.3365C1.11012 10.4921 11.8085 10.6762 11.8085 10.6762C11.8085 10.6762 14.9393 0.406361 17.9182 0.406361Z" fill="url(#paint0_linear_194_351)"/>
<defs>
<linearGradient id="paint0_linear_194_351" x1="17.9187" y1="35.2063" x2="17.9187" y2="0.335566" gradientUnits="userSpaceOnUse">
<stop stop-color="#FF9302"/>
<stop offset="1" stop-color="#FCD60A"/>
</linearGradient>
</defs>
</svg>
